<mxfile host="65bd71144e">
    <diagram id="hU_kG0yLdLCH7EOyXlol" name="Page-1">
        <mxGraphModel dx="686" dy="435" grid="1" gridSize="10" guides="1" tooltips="1" connect="1" arrows="1" fold="1" page="1" pageScale="1" pageWidth="850" pageHeight="1100" math="0" shadow="0">
            <root>
                <mxCell id="0"/>
                <mxCell id="1" parent="0"/>
                <mxCell id="2" value="&lt;div style=&quot;color: rgb(218, 218, 218); background-color: rgb(30, 30, 30); font-family: &amp;quot;Droid Sans Mono&amp;quot;, &amp;quot;monospace&amp;quot;, monospace; font-weight: normal; font-size: 14px; line-height: 19px;&quot;&gt;&lt;div&gt;&lt;span style=&quot;color: #dadada;&quot;&gt;problemPtr_&lt;/span&gt;&lt;/div&gt;&lt;/div&gt;" style="text;whiteSpace=wrap;html=1;" parent="1" vertex="1">
                    <mxGeometry x="100" y="150" width="130" height="40" as="geometry"/>
                </mxCell>
                <mxCell id="3" value="&lt;div style=&quot;color: rgb(218, 218, 218); background-color: rgb(30, 30, 30); font-family: &amp;quot;Droid Sans Mono&amp;quot;, &amp;quot;monospace&amp;quot;, monospace; font-weight: normal; font-size: 14px; line-height: 19px;&quot;&gt;&lt;div&gt;&lt;span style=&quot;color: #dadada;&quot;&gt;problemPtr_&lt;/span&gt;&lt;span style=&quot;color: #b4b4b4;&quot;&gt;-&amp;gt;&lt;/span&gt;&lt;span style=&quot;color: #9cdcfe;&quot;&gt;costPtr&lt;/span&gt;&lt;span style=&quot;color: #b4b4b4;&quot;&gt;-&amp;gt;&lt;/span&gt;&lt;span style=&quot;color: #dcdcaa;&quot;&gt;add&lt;/span&gt;&lt;span style=&quot;color: #b4b4b4;&quot;&gt;(&lt;/span&gt;&lt;span style=&quot;color: #e8c9bb;&quot;&gt;&quot;&lt;/span&gt;&lt;span style=&quot;color: #ce9178;&quot;&gt;fullInputCost&lt;/span&gt;&lt;span style=&quot;color: #e8c9bb;&quot;&gt;&quot;&lt;/span&gt;&lt;span style=&quot;color: #b4b4b4;&quot;&gt;,&lt;/span&gt;&lt;span style=&quot;color: #dadada;&quot;&gt; &lt;/span&gt;&lt;span style=&quot;color: #dcdcaa;&quot;&gt;getFullInputCost&lt;/span&gt;&lt;span style=&quot;color: #b4b4b4;&quot;&gt;(&lt;/span&gt;&lt;span style=&quot;color: #9a9a9a;&quot;&gt;taskFile&lt;/span&gt;&lt;span style=&quot;color: #b4b4b4;&quot;&gt;,&lt;/span&gt;&lt;span style=&quot;color: #dadada;&quot;&gt; &lt;/span&gt;&lt;span style=&quot;color: #dadada;&quot;&gt;centroidalModelInfo_&lt;/span&gt;&lt;span style=&quot;color: #b4b4b4;&quot;&gt;,&lt;/span&gt;&lt;span style=&quot;color: #dadada;&quot;&gt; &lt;/span&gt;&lt;span style=&quot;color: #569cd6;&quot;&gt;false&lt;/span&gt;&lt;span style=&quot;color: #b4b4b4;&quot;&gt;));&lt;/span&gt;&lt;/div&gt;&lt;/div&gt;" style="text;whiteSpace=wrap;html=1;" parent="1" vertex="1">
                    <mxGeometry x="100" y="190" width="560" height="60" as="geometry"/>
                </mxCell>
                <mxCell id="4" value="&lt;div style=&quot;color: rgb(218, 218, 218); background-color: rgb(30, 30, 30); font-family: &amp;quot;Droid Sans Mono&amp;quot;, &amp;quot;monospace&amp;quot;, monospace; font-weight: normal; font-size: 14px; line-height: 19px;&quot;&gt;&lt;div&gt;&lt;span style=&quot;color: #dadada;&quot;&gt; &lt;/span&gt;&lt;span style=&quot;color: #c8c8c8;&quot;&gt;std&lt;/span&gt;&lt;span style=&quot;color: #b4b4b4;&quot;&gt;::&lt;/span&gt;&lt;span style=&quot;color: #4ec9b0;&quot;&gt;unique_ptr&lt;/span&gt;&lt;span style=&quot;color: #b4b4b4;&quot;&gt;&amp;lt;&lt;/span&gt;&lt;span style=&quot;color: #dadada;&quot;&gt;StateInputCostCollection&lt;/span&gt;&lt;span style=&quot;color: #b4b4b4;&quot;&gt;&amp;gt;&lt;/span&gt;&lt;span style=&quot;color: #dadada;&quot;&gt; &lt;/span&gt;&lt;span style=&quot;color: #dadada;&quot;&gt;costPtr&lt;/span&gt;&lt;span style=&quot;color: #b4b4b4;&quot;&gt;;&lt;/span&gt;&lt;/div&gt;&lt;/div&gt;" style="text;whiteSpace=wrap;html=1;" parent="1" vertex="1">
                    <mxGeometry x="100" y="250" width="450" height="40" as="geometry"/>
                </mxCell>
                <mxCell id="5" value="&lt;div style=&quot;color: rgb(218, 218, 218); background-color: rgb(30, 30, 30); font-family: &amp;quot;Droid Sans Mono&amp;quot;, &amp;quot;monospace&amp;quot;, monospace; font-weight: normal; font-size: 14px; line-height: 19px;&quot;&gt;&lt;div&gt;&lt;span style=&quot;color: #569cd6;&quot;&gt;class&lt;/span&gt;&lt;span style=&quot;color: #dadada;&quot;&gt; &lt;/span&gt;&lt;span style=&quot;color: #4ec9b0;&quot;&gt;StateInputCostCollection&lt;/span&gt;&lt;span style=&quot;color: #dadada;&quot;&gt; &lt;/span&gt;&lt;span style=&quot;color: #b4b4b4;&quot;&gt;:&lt;/span&gt;&lt;span style=&quot;color: #dadada;&quot;&gt; &lt;/span&gt;&lt;span style=&quot;color: #569cd6;&quot;&gt;public&lt;/span&gt;&lt;span style=&quot;color: #dadada;&quot;&gt; &lt;/span&gt;&lt;span style=&quot;color: #4ec9b0;&quot;&gt;Collection&lt;/span&gt;&lt;span style=&quot;color: #b4b4b4;&quot;&gt;&amp;lt;&lt;/span&gt;&lt;span style=&quot;color: #4ec9b0;&quot;&gt;StateInputCost&lt;/span&gt;&lt;span style=&quot;color: #b4b4b4;&quot;&gt;&amp;gt;&lt;/span&gt;&lt;span style=&quot;color: #dadada;&quot;&gt; &lt;/span&gt;&lt;/div&gt;&lt;/div&gt;" style="text;whiteSpace=wrap;html=1;" parent="1" vertex="1">
                    <mxGeometry x="100" y="300" width="560" height="40" as="geometry"/>
                </mxCell>
                <mxCell id="6" value="&lt;div style=&quot;color: rgb(218, 218, 218); background-color: rgb(30, 30, 30); font-family: &amp;quot;Droid Sans Mono&amp;quot;, &amp;quot;monospace&amp;quot;, monospace; font-weight: normal; font-size: 14px; line-height: 19px;&quot;&gt;&lt;div&gt;&lt;span style=&quot;color: #569cd6;&quot;&gt;class&lt;/span&gt;&lt;span style=&quot;color: #dadada;&quot;&gt; &lt;/span&gt;&lt;span style=&quot;color: #4ec9b0;&quot;&gt;StateInputCost&lt;/span&gt;&lt;/div&gt;&lt;/div&gt;" style="text;whiteSpace=wrap;html=1;" parent="1" vertex="1">
                    <mxGeometry x="100" y="350" width="200" height="40" as="geometry"/>
                </mxCell>
                <mxCell id="7" value="&lt;div style=&quot;background-color: rgb(30, 30, 30); font-family: &amp;quot;Droid Sans Mono&amp;quot;, &amp;quot;monospace&amp;quot;, monospace; font-weight: normal; font-size: 14px; line-height: 19px;&quot;&gt;&lt;div style=&quot;&quot;&gt;&lt;span style=&quot;color: rgb(200, 200, 200);&quot;&gt;std&lt;/span&gt;&lt;span style=&quot;color: rgb(180, 180, 180);&quot;&gt;::&lt;/span&gt;&lt;span style=&quot;color: rgb(78, 201, 176);&quot;&gt;unique_ptr&lt;/span&gt;&lt;span style=&quot;color: rgb(180, 180, 180);&quot;&gt;&amp;lt;&lt;/span&gt;&lt;span style=&quot;color: rgb(78, 201, 176);&quot;&gt;StateInputCost&lt;/span&gt;&lt;span style=&quot;color: rgb(180, 180, 180);&quot;&gt;&amp;gt;(&lt;/span&gt;&lt;span style=&quot;color: rgb(86, 156, 214);&quot;&gt;new&lt;/span&gt;&lt;font color=&quot;#dadada&quot;&gt;&amp;nbsp;&lt;/font&gt;&lt;span style=&quot;color: rgb(78, 201, 176);&quot;&gt;LeggedRobotStateInputQuadraticCost&lt;/span&gt;&lt;span style=&quot;color: rgb(180, 180, 180);&quot;&gt;(&lt;/span&gt;&lt;span style=&quot;color: rgb(200, 200, 200);&quot;&gt;std&lt;/span&gt;&lt;span style=&quot;color: rgb(180, 180, 180);&quot;&gt;::&lt;/span&gt;&lt;span style=&quot;color: rgb(220, 220, 170);&quot;&gt;move&lt;/span&gt;&lt;span style=&quot;color: rgb(180, 180, 180);&quot;&gt;(&lt;/span&gt;&lt;span style=&quot;color: rgb(156, 220, 254);&quot;&gt;Q&lt;/span&gt;&lt;span style=&quot;color: rgb(180, 180, 180);&quot;&gt;),&lt;/span&gt;&lt;span style=&quot;color: rgb(218, 218, 218);&quot;&gt; &lt;/span&gt;&lt;span style=&quot;color: rgb(200, 200, 200);&quot;&gt;std&lt;/span&gt;&lt;span style=&quot;color: rgb(180, 180, 180);&quot;&gt;::&lt;/span&gt;&lt;span style=&quot;color: rgb(220, 220, 170);&quot;&gt;move&lt;/span&gt;&lt;span style=&quot;color: rgb(180, 180, 180);&quot;&gt;(&lt;/span&gt;&lt;span style=&quot;color: rgb(156, 220, 254);&quot;&gt;R&lt;/span&gt;&lt;span style=&quot;color: rgb(180, 180, 180);&quot;&gt;),&lt;/span&gt;&lt;span style=&quot;color: rgb(218, 218, 218);&quot;&gt; &lt;/span&gt;&lt;span style=&quot;color: rgb(154, 154, 154);&quot;&gt;info&lt;/span&gt;&lt;span style=&quot;color: rgb(180, 180, 180);&quot;&gt;,&lt;/span&gt;&lt;span style=&quot;color: rgb(218, 218, 218);&quot;&gt; &lt;/span&gt;&lt;span style=&quot;color: rgb(180, 180, 180);&quot;&gt;*&lt;/span&gt;&lt;span style=&quot;color: rgb(218, 218, 218);&quot;&gt;referenceManagerPtr_&lt;/span&gt;&lt;span style=&quot;color: rgb(180, 180, 180);&quot;&gt;,&lt;/span&gt;&lt;span style=&quot;color: rgb(218, 218, 218);&quot;&gt; &lt;/span&gt;&lt;span style=&quot;color: rgb(154, 154, 154);&quot;&gt;taskFile&lt;/span&gt;&lt;span style=&quot;color: rgb(180, 180, 180);&quot;&gt;));&lt;/span&gt;&lt;/div&gt;&lt;/div&gt;" style="text;whiteSpace=wrap;html=1;" vertex="1" parent="1">
                    <mxGeometry x="100" y="390" width="800" height="60" as="geometry"/>
                </mxCell>
                <mxCell id="9" value="&lt;div style=&quot;color: rgb(218, 218, 218); background-color: rgb(30, 30, 30); font-family: &amp;quot;Droid Sans Mono&amp;quot;, &amp;quot;monospace&amp;quot;, monospace; font-weight: normal; font-size: 14px; line-height: 19px;&quot;&gt;&lt;div&gt;&lt;span style=&quot;color: #569cd6;&quot;&gt;class&lt;/span&gt;&lt;span style=&quot;color: #dadada;&quot;&gt; &lt;/span&gt;&lt;span style=&quot;color: #4ec9b0;&quot;&gt;LeggedRobotStateInputQuadraticCost&lt;/span&gt;&lt;span style=&quot;color: #dadada;&quot;&gt; &lt;/span&gt;&lt;span style=&quot;color: #569cd6;&quot;&gt;final&lt;/span&gt;&lt;span style=&quot;color: #dadada;&quot;&gt; &lt;/span&gt;&lt;span style=&quot;color: #b4b4b4;&quot;&gt;:&lt;/span&gt;&lt;span style=&quot;color: #dadada;&quot;&gt; &lt;/span&gt;&lt;span style=&quot;color: #569cd6;&quot;&gt;public&lt;/span&gt;&lt;span style=&quot;color: #dadada;&quot;&gt; &lt;/span&gt;&lt;span style=&quot;color: #4ec9b0;&quot;&gt;QuadraticStateInputCost&lt;/span&gt;&lt;span style=&quot;color: #dadada;&quot;&gt; &lt;/span&gt;&lt;/div&gt;&lt;/div&gt;" style="text;whiteSpace=wrap;html=1;" vertex="1" parent="1">
                    <mxGeometry x="100" y="450" width="710" height="30" as="geometry"/>
                </mxCell>
                <mxCell id="13" value="" style="edgeStyle=none;html=1;" edge="1" parent="1" source="10" target="11">
                    <mxGeometry relative="1" as="geometry"/>
                </mxCell>
                <mxCell id="10" value="&lt;div style=&quot;color: rgb(218, 218, 218); background-color: rgb(30, 30, 30); font-family: &amp;quot;Droid Sans Mono&amp;quot;, &amp;quot;monospace&amp;quot;, monospace; font-weight: normal; font-size: 14px; line-height: 19px;&quot;&gt;&lt;div&gt;&lt;span style=&quot;color: #569cd6;&quot;&gt;class&lt;/span&gt;&lt;span style=&quot;color: #dadada;&quot;&gt; &lt;/span&gt;&lt;span style=&quot;color: #4ec9b0;&quot;&gt;QuadraticStateInputCost&lt;/span&gt;&lt;span style=&quot;color: #dadada;&quot;&gt; &lt;/span&gt;&lt;span style=&quot;color: #b4b4b4;&quot;&gt;:&lt;/span&gt;&lt;span style=&quot;color: #dadada;&quot;&gt; &lt;/span&gt;&lt;span style=&quot;color: #569cd6;&quot;&gt;public&lt;/span&gt;&lt;span style=&quot;color: #dadada;&quot;&gt; &lt;/span&gt;&lt;span style=&quot;color: #4ec9b0;&quot;&gt;StateInputCost&lt;/span&gt;&lt;/div&gt;&lt;/div&gt;" style="text;whiteSpace=wrap;html=1;" vertex="1" parent="1">
                    <mxGeometry x="100" y="500" width="480" height="40" as="geometry"/>
                </mxCell>
                <mxCell id="11" value="&lt;div style=&quot;color: rgb(218, 218, 218); background-color: rgb(30, 30, 30); font-family: &amp;quot;Droid Sans Mono&amp;quot;, &amp;quot;monospace&amp;quot;, monospace; font-weight: normal; font-size: 14px; line-height: 19px;&quot;&gt;&lt;div&gt;&lt;span style=&quot;color: #57a64a;&quot;&gt;  /**&lt;/span&gt;&lt;/div&gt;&lt;div&gt;&lt;span style=&quot;color: #57a64a;&quot;&gt;   * Constructor for the quadratic cost function defined as the following:&lt;/span&gt;&lt;/div&gt;&lt;div&gt;&lt;span style=&quot;color: #57a64a;&quot;&gt;   * \f$ L = 0.5(x-x_{n})' Q (x-x_{n}) + 0.5(u-u_{n})' R (u-u_{n}) + (u-u_{n})' P (x-x_{n}) \f$&lt;/span&gt;&lt;/div&gt;&lt;div&gt;&lt;span style=&quot;color: #57a64a;&quot;&gt;   * &lt;/span&gt;&lt;span style=&quot;color: #569cd6;&quot;&gt;@param&lt;/span&gt;&lt;span style=&quot;color: #57a64a;&quot;&gt; [&lt;/span&gt;&lt;span style=&quot;color: #569cd6;&quot;&gt;in&lt;/span&gt;&lt;span style=&quot;color: #57a64a;&quot;&gt;] &lt;/span&gt;&lt;span style=&quot;color: #9a9a9a;&quot;&gt;Q&lt;/span&gt;&lt;span style=&quot;color: #57a64a;&quot;&gt;: \f$ Q \f$&lt;/span&gt;&lt;/div&gt;&lt;div&gt;&lt;span style=&quot;color: #57a64a;&quot;&gt;   * &lt;/span&gt;&lt;span style=&quot;color: #569cd6;&quot;&gt;@param&lt;/span&gt;&lt;span style=&quot;color: #57a64a;&quot;&gt; [&lt;/span&gt;&lt;span style=&quot;color: #569cd6;&quot;&gt;in&lt;/span&gt;&lt;span style=&quot;color: #57a64a;&quot;&gt;] &lt;/span&gt;&lt;span style=&quot;color: #9a9a9a;&quot;&gt;R&lt;/span&gt;&lt;span style=&quot;color: #57a64a;&quot;&gt;: \f$ R \f$&lt;/span&gt;&lt;/div&gt;&lt;div&gt;&lt;span style=&quot;color: #57a64a;&quot;&gt;   * &lt;/span&gt;&lt;span style=&quot;color: #569cd6;&quot;&gt;@param&lt;/span&gt;&lt;span style=&quot;color: #57a64a;&quot;&gt; [&lt;/span&gt;&lt;span style=&quot;color: #569cd6;&quot;&gt;in&lt;/span&gt;&lt;span style=&quot;color: #57a64a;&quot;&gt;] &lt;/span&gt;&lt;span style=&quot;color: #9a9a9a;&quot;&gt;P&lt;/span&gt;&lt;span style=&quot;color: #57a64a;&quot;&gt;: \f$ P \f$&lt;/span&gt;&lt;/div&gt;&lt;div&gt;&lt;span style=&quot;color: #57a64a;&quot;&gt;   */&lt;/span&gt;&lt;/div&gt;&lt;/div&gt;" style="text;whiteSpace=wrap;html=1;" vertex="1" parent="1">
                    <mxGeometry x="100" y="540" width="560" height="190" as="geometry"/>
                </mxCell>
                <mxCell id="16" value="" style="edgeStyle=elbowEdgeStyle;elbow=vertical;endArrow=classic;html=1;curved=0;rounded=0;endSize=8;startSize=8;exitX=0.25;exitY=0;exitDx=0;exitDy=0;entryX=0.75;entryY=0;entryDx=0;entryDy=0;" edge="1" parent="1" source="9" target="9">
                    <mxGeometry width="50" height="50" relative="1" as="geometry">
                        <mxPoint x="450" y="490" as="sourcePoint"/>
                        <mxPoint x="500" y="440" as="targetPoint"/>
                    </mxGeometry>
                </mxCell>
                <mxCell id="17" value="" style="edgeStyle=elbowEdgeStyle;elbow=vertical;endArrow=classic;html=1;curved=0;rounded=0;endSize=8;startSize=8;exitX=0.25;exitY=0;exitDx=0;exitDy=0;entryX=0.75;entryY=0;entryDx=0;entryDy=0;" edge="1" parent="1" source="10" target="10">
                    <mxGeometry width="50" height="50" relative="1" as="geometry">
                        <mxPoint x="450" y="490" as="sourcePoint"/>
                        <mxPoint x="500" y="440" as="targetPoint"/>
                    </mxGeometry>
                </mxCell>
            </root>
        </mxGraphModel>
    </diagram>
</mxfile>